<svg width="60" height="60" viewBox="0 0 60 60" fill="none" xmlns="http://www.w3.org/2000/svg">
<g filter="url(#filter0_d_1598_1024)">
<circle cx="30" cy="22" r="15" fill="white"/>
</g>
<path d="M35.8337 15.3334H24.167C23.504 15.3334 22.8681 15.5968 22.3992 16.0656C21.9304 16.5344 21.667 17.1703 21.667 17.8334V26.1667C21.667 26.8297 21.9304 27.4656 22.3992 27.9345C22.8681 28.4033 23.504 28.6667 24.167 28.6667H35.8337C36.4967 28.6667 37.1326 28.4033 37.6014 27.9345C38.0703 27.4656 38.3337 26.8297 38.3337 26.1667V17.8334C38.3337 17.1703 38.0703 16.5344 37.6014 16.0656C37.1326 15.5968 36.4967 15.3334 35.8337 15.3334ZM35.2753 17L30.0003 20.9584L24.7253 17H35.2753ZM35.8337 27H24.167C23.946 27 23.734 26.9122 23.5777 26.756C23.4215 26.5997 23.3337 26.3877 23.3337 26.1667V18.0417L29.5003 22.6667C29.6446 22.7749 29.82 22.8334 30.0003 22.8334C30.1806 22.8334 30.3561 22.7749 30.5003 22.6667L36.667 18.0417V26.1667C36.667 26.3877 36.5792 26.5997 36.4229 26.756C36.2666 26.9122 36.0547 27 35.8337 27Z" fill="#FF9900"/>
<defs>
<filter id="filter0_d_1598_1024" x="0" y="0" width="60" height="60" filterUnits="userSpaceOnUse" color-interpolation-filters="sRGB">
<feFlood flood-opacity="0" result="BackgroundImageFix"/>
<feColorMatrix in="SourceAlpha" type="matrix" values="0 0 0 0 0 0 0 0 0 0 0 0 0 0 0 0 0 0 127 0" result="hardAlpha"/>
<feOffset dy="8"/>
<feGaussianBlur stdDeviation="7.5"/>
<feComposite in2="hardAlpha" operator="out"/>
<feColorMatrix type="matrix" values="0 0 0 0 0.220833 0 0 0 0 0.220833 0 0 0 0 0.220833 0 0 0 0.2 0"/>
<feBlend mode="normal" in2="BackgroundImageFix" result="effect1_dropShadow_1598_1024"/>
<feBlend mode="normal" in="SourceGraphic" in2="effect1_dropShadow_1598_1024" result="shape"/>
</filter>
</defs>
</svg>
