<svg width="23" height="23" viewBox="0 0 23 23" fill="none" xmlns="http://www.w3.org/2000/svg">
<path d="M11.5013 4.34027C13.7524 2.31915 17.2312 2.38623 19.3999 4.55877C21.5676 6.73227 21.6424 10.1938 19.626 12.4516L11.4994 20.5898L3.37462 12.4516C1.35829 10.1938 1.434 6.72652 3.60079 4.55877C5.77142 2.38911 9.24346 2.31627 11.5013 4.34027ZM18.0429 5.9129C16.6054 4.47348 14.2862 4.41502 12.7816 5.76627L11.5022 6.91436L10.2219 5.76723C8.71254 4.41406 6.39817 4.47348 4.95683 5.91481C3.52891 7.34273 3.45704 9.62836 4.77283 11.1387L11.5003 17.8767L18.2278 11.1396C19.5446 9.62836 19.4727 7.34561 18.0429 5.9129Z" fill="white"/>
</svg>
