<svg width="25" height="25" viewBox="0 0 25 25" fill="none" xmlns="http://www.w3.org/2000/svg">
<path d="M12.5012 4.71771C14.9481 2.52084 18.7293 2.59375 21.0866 4.95521C23.4429 7.31771 23.5241 11.0802 21.3325 13.5344L12.4991 22.3802L3.66788 13.5344C1.47621 11.0802 1.5585 7.31146 3.91371 4.95521C6.27309 2.59688 10.047 2.51771 12.5012 4.71771ZM19.6116 6.42709C18.0491 4.8625 15.5283 4.79896 13.8929 6.26771L12.5023 7.51563L11.1106 6.26875C9.46996 4.79792 6.95434 4.8625 5.38767 6.42917C3.83559 7.98125 3.75746 10.4656 5.18767 12.1073L12.5002 19.4313L19.8127 12.1083C21.2439 10.4656 21.1658 7.98438 19.6116 6.42709Z" fill="#1074EB"/>
</svg>
