<?xml version="1.0" standalone="no"?>
<!DOCTYPE svg PUBLIC "-//W3C//DTD SVG 20010904//EN"
 "http://www.w3.org/TR/2001/REC-SVG-20010904/DTD/svg10.dtd">
<svg version="1.0" xmlns="http://www.w3.org/2000/svg"
 width="638.000000pt" height="960.000000pt" viewBox="0 0 638.000000 960.000000"
 preserveAspectRatio="xMidYMid meet">

<g transform="translate(0.000000,960.000000) scale(0.100000,-0.100000)"
fill="#000000" stroke="none">
<path d="M6295 9327 c-2 -7 -5 -25 -7 -42 -2 -23 -12 -35 -43 -51 -22 -12 -39
-27 -37 -33 1 -7 2 -31 2 -54 -2 -62 -1 -109 2 -136 3 -21 -3 -26 -36 -34 -34
-9 -40 -7 -62 17 -22 23 -33 26 -90 26 -59 0 -65 -2 -74 -24 -10 -27 -30 -44
-30 -25 0 31 -19 -9 -22 -46 -2 -33 -6 -40 -23 -37 -11 2 -16 -1 -10 -5 17
-14 18 -78 0 -93 -13 -11 -19 -10 -39 9 -18 17 -25 19 -33 9 -18 -24 -23 -50
-12 -64 6 -7 8 -18 5 -23 -15 -23 12 -17 43 10 34 29 51 30 51 3 0 -13 -5 -16
-40 -18 -8 -1 -16 -11 -18 -23 -2 -16 5 -26 26 -37 38 -20 51 -37 55 -75 4
-32 43 -84 58 -76 4 3 10 19 14 36 11 50 46 92 96 117 50 24 108 29 127 10 17
-17 15 -53 -4 -69 -12 -9 -14 -24 -9 -58 4 -32 1 -55 -10 -75 -8 -15 -15 -49
-15 -75 0 -36 -5 -49 -20 -59 -17 -11 -19 -16 -9 -35 7 -12 18 -28 26 -35 7
-7 13 -25 13 -38 0 -23 -3 -25 -47 -23 -27 1 -56 -2 -65 -6 -25 -10 -38 24
-38 105 0 39 -5 80 -10 91 -13 23 -43 25 -64 4 -8 -8 -19 -15 -24 -15 -12 0
-22 -24 -22 -55 0 -30 -14 -39 -40 -25 -24 13 -26 35 -4 44 12 5 15 15 11 39
-16 106 -30 165 -43 185 -16 24 -44 30 -44 9 0 -22 -38 -39 -60 -27 -16 8 -22
8 -26 -4 -11 -29 0 -61 23 -64 18 -3 24 -15 36 -75 19 -90 15 -136 -13 -159
-40 -32 -63 -24 -83 31 -9 27 -17 58 -17 69 0 16 -9 24 -36 31 -68 19 -77 3
-78 -131 -1 -86 -4 -99 -23 -120 -13 -14 -23 -29 -23 -35 0 -6 -6 -13 -12 -16
-10 -4 -10 -7 0 -18 7 -8 12 -44 12 -98 0 -105 -12 -125 -66 -108 -27 8 -40 8
-57 -2 -19 -12 -23 -11 -35 8 -20 29 -34 27 -70 -14 -18 -19 -45 -37 -60 -41
-15 -3 -52 -12 -82 -20 -121 -31 -219 -45 -240 -34 -21 11 -26 39 -11 56 14
15 23 54 12 54 -5 0 -13 -9 -16 -20 -5 -16 -12 -19 -27 -14 -13 4 -18 2 -14
-4 7 -12 -16 -22 -51 -22 -25 0 -26 0 -8 20 10 11 23 20 30 20 6 0 20 7 31 16
10 8 13 13 7 9 -7 -3 -20 -2 -29 3 -13 8 -14 10 0 21 15 13 11 45 -5 36 -4 -3
-6 -11 -3 -19 6 -17 -46 -42 -56 -26 -8 12 41 70 59 70 16 0 14 17 -3 23 -7 3
-19 0 -25 -6 -6 -6 -11 -7 -11 -3 0 5 16 22 35 39 27 23 33 33 24 43 -6 7 -16
11 -24 8 -7 -3 -16 -1 -20 5 -3 6 -11 11 -16 11 -6 0 -7 -5 -3 -11 3 -6 0 -15
-7 -20 -19 -12 -32 -11 -24 2 4 5 1 24 -6 41 -9 23 -9 32 0 37 6 4 9 16 6 27
-6 16 -5 16 7 -2 15 -25 38 -21 38 7 0 11 -12 42 -27 71 -26 50 -26 52 -13
122 14 70 15 117 7 206 -2 25 -5 55 -6 67 -1 22 -27 40 -88 64 l-28 10 24 -25
c37 -40 19 -40 -23 -1 -43 39 -116 65 -183 65 -38 0 -50 6 -94 47 -30 28 -45
49 -39 53 6 4 12 25 13 47 1 31 -6 50 -26 77 -16 20 -36 37 -45 37 -9 1 -26 2
-37 3 -13 1 -21 11 -26 34 -11 56 -21 50 -14 -9 6 -45 4 -58 -10 -69 -14 -11
-18 -11 -31 2 -12 11 -16 37 -16 97 -1 45 -5 84 -10 87 -6 4 -7 -12 -3 -40 8
-48 -1 -108 -13 -89 -11 16 -69 43 -94 43 -13 0 -33 12 -46 29 -24 31 -152 88
-185 82 -10 -1 -38 9 -64 23 -43 25 -103 35 -103 18 0 -27 -248 -48 -272 -24
-15 15 -64 16 -73 2 -8 -13 -62 -13 -70 0 -8 13 -47 -11 -41 -26 2 -6 -1 -17
-7 -23 -6 -6 -8 -11 -5 -11 4 0 1 -12 -7 -26 -7 -15 -11 -33 -8 -40 4 -10 0
-12 -11 -8 -15 6 -21 -5 -17 -29 1 -5 -3 -6 -9 -2 -5 3 -10 -1 -10 -9 0 -9 -4
-16 -10 -16 -5 0 -10 7 -10 16 0 20 -27 47 -41 42 -8 -3 -5 -10 6 -21 9 -10
14 -21 11 -25 -9 -8 -46 39 -40 49 2 4 -21 11 -52 15 -39 4 -63 3 -81 -7 -39
-21 -113 -99 -135 -144 -11 -22 -22 -42 -24 -44 -6 -6 -167 -31 -206 -31 -21
0 -43 -7 -50 -15 -7 -9 -23 -26 -35 -38 -12 -12 -53 -65 -91 -117 -92 -126
-97 -130 -134 -131 -24 -1 -27 -3 -10 -6 32 -6 27 -17 -15 -39 -46 -23 -53
-31 -53 -67 0 -16 -4 -26 -10 -22 -6 3 -10 2 -10 -4 0 -5 5 -13 10 -16 16 -10
11 -25 -6 -18 -15 5 -15 3 1 -21 17 -26 17 -27 -10 -49 -16 -12 -32 -24 -35
-27 -35 -25 -65 -159 -40 -175 13 -8 13 -62 -1 -71 -6 -3 -8 -15 -6 -26 3 -11
0 -21 -9 -25 -8 -3 -12 -8 -10 -12 3 -4 7 -29 10 -57 3 -27 10 -69 16 -93 6
-24 8 -51 5 -60 -4 -9 -6 -57 -6 -108 l1 -92 -42 -21 c-42 -20 -42 -20 -10
-15 37 5 53 -15 34 -45 -6 -10 -14 -35 -18 -56 l-7 -39 25 29 c42 50 56 32 55
-73 0 -79 -2 -91 -18 -96 -20 -7 -26 -25 -8 -25 5 0 7 -5 4 -11 -4 -6 2 -17
14 -25 12 -8 21 -19 21 -25 0 -5 12 -28 27 -52 15 -23 26 -51 25 -62 0 -11 5
-26 13 -35 34 -38 14 -106 -32 -112 -23 -2 -29 -8 -31 -35 -4 -40 3 -41 34 -8
38 42 47 33 41 -41 -3 -39 1 -88 9 -122 7 -31 13 -75 14 -98 0 -22 4 -44 9
-50 13 -14 44 -114 37 -121 -3 -3 0 -15 6 -26 10 -20 11 -20 24 -2 8 10 11 29
8 42 -8 28 11 31 26 3 7 -14 7 -25 -1 -38 -9 -15 -9 -27 0 -52 7 -22 8 -37 1
-45 -6 -7 -8 -21 -4 -31 4 -14 3 -16 -4 -5 -11 15 -32 7 -32 -12 0 -7 5 -30
11 -52 11 -39 12 -39 21 -15 7 16 12 20 15 12 3 -7 16 -17 30 -23 21 -8 24
-14 21 -46 -4 -44 -25 -55 -34 -18 -4 16 -12 24 -20 21 -7 -3 -15 0 -17 7 -2
7 -7 -14 -11 -45 -4 -32 -5 -61 -3 -65 3 -5 8 -38 11 -74 3 -37 10 -78 15 -92
7 -18 7 -28 0 -33 -6 -3 -7 -13 -3 -23 3 -9 8 -43 11 -76 2 -36 10 -64 19 -71
8 -6 14 -21 14 -33 0 -11 4 -21 9 -21 5 0 11 -9 14 -20 3 -13 11 -18 20 -14
17 6 31 -33 13 -40 -6 -2 -1 -8 11 -11 16 -5 23 -19 30 -53 6 -29 14 -46 22
-44 9 2 10 -8 5 -34 -5 -25 -3 -35 4 -30 6 3 19 -5 29 -19 10 -14 26 -35 36
-47 10 -13 15 -29 11 -41 -5 -17 -2 -19 25 -15 33 5 36 -2 31 -62 -3 -32 -9
-38 -20 -20 -5 8 -13 11 -17 6 -4 -5 -2 -11 5 -13 6 -3 12 -12 12 -21 0 -9 4
-23 8 -30 12 -19 52 23 53 56 1 25 2 24 10 -8 13 -47 44 -73 71 -59 11 6 22 8
26 5 3 -3 1 -6 -5 -6 -8 0 -33 -41 -33 -55 0 -3 8 -5 18 -5 26 0 52 -32 52
-63 0 -15 5 -27 10 -27 9 0 14 14 11 33 -1 4 7 3 18 -3 26 -13 31 -13 27 3 -1
6 -1 9 1 4 3 -4 9 -5 14 -1 14 9 10 -3 -7 -21 -20 -19 -13 -27 21 -27 21 0 25
-5 25 -29 0 -16 5 -29 10 -29 13 0 13 36 0 60 -6 10 -6 21 -1 24 4 3 13 -6 19
-19 8 -17 20 -25 36 -25 14 0 29 -6 33 -13 4 -7 19 -20 33 -29 14 -9 35 -25
47 -37 13 -12 36 -24 53 -28 17 -3 35 -14 41 -24 5 -11 16 -19 23 -19 8 0 17
-7 20 -16 4 -10 13 -13 26 -9 14 4 20 2 20 -8 0 -16 35 -23 152 -32 32 -2 62
-6 66 -9 5 -3 65 -8 134 -12 143 -7 217 7 258 51 13 14 31 25 40 25 34 0 145
85 145 112 0 3 3 10 8 14 4 4 7 2 7 -4 0 -7 5 -12 10 -12 6 0 10 9 10 19 0 14
9 21 31 26 22 5 35 16 45 40 7 19 19 37 24 40 17 11 33 57 31 88 -3 38 9 91
19 80 4 -4 20 -64 35 -132 24 -108 27 -137 22 -230 -8 -151 -57 -358 -98 -419
-58 -86 -79 -122 -72 -122 5 0 21 18 37 40 59 80 59 58 1 -231 -79 -386 -103
-519 -125 -674 -29 -211 -65 -314 -210 -610 -93 -189 -148 -311 -287 -640 -46
-110 -102 -236 -125 -280 -40 -80 -240 -389 -259 -401 -11 -6 -6 107 12 253 7
57 6 89 -1 102 -5 11 -10 32 -10 48 l1 28 19 -24 c17 -19 21 -20 25 -7 3 9 8
24 11 34 4 9 10 130 14 267 5 145 17 324 29 425 41 335 44 374 38 540 -5 149
-9 181 -46 330 -23 91 -45 180 -51 199 -6 22 -6 41 0 52 6 10 10 28 10 41 1
36 37 107 71 139 l31 29 -27 82 c-28 85 -94 227 -124 267 -12 16 -33 24 -75
30 l-57 8 -45 -51 c-51 -59 -89 -132 -114 -225 -41 -147 -72 -267 -74 -286 -1
-12 -5 -25 -8 -30 -8 -14 -19 -65 -14 -65 16 0 126 215 134 262 5 28 13 43 22
43 20 0 54 -71 53 -110 -4 -92 -5 -96 -28 -111 -13 -9 -32 -37 -41 -62 -10
-26 -37 -79 -60 -118 -60 -103 -118 -227 -149 -319 -35 -106 -139 -524 -171
-688 -57 -299 -65 -341 -71 -398 -3 -32 -9 -59 -13 -59 -10 0 -35 93 -59 225
-11 61 -39 173 -60 250 -22 77 -47 181 -55 230 -8 50 -24 133 -35 185 -12 52
-21 122 -21 156 0 33 -9 94 -20 135 -11 41 -20 94 -20 119 0 25 -6 74 -14 110
-10 50 -11 101 -5 215 5 83 8 296 7 475 -4 567 -3 642 6 773 7 101 6 127 -4
127 -7 0 -39 -24 -70 -52 -123 -115 -173 -146 -316 -198 -74 -27 -228 -93
-342 -146 -292 -137 -384 -177 -572 -250 -91 -36 -178 -71 -195 -79 -74 -32
-382 -177 -400 -187 -11 -6 -54 -14 -96 -19 -42 -4 -86 -13 -98 -21 l-21 -13
0 -2052 0 -2053 3190 0 3190 0 0 1914 c0 1522 -3 1915 -12 1919 -10 4 -10 6 0
6 9 1 12 43 11 179 0 146 -3 172 -12 147 -22 -57 -37 -75 -61 -75 -19 0 -25 6
-28 32 -3 19 0 37 7 43 6 5 18 25 25 43 8 20 19 32 31 32 12 0 19 7 19 19 0
11 5 23 10 26 15 10 13 156 -2 152 -18 -3 -24 113 -6 124 8 5 14 37 16 83 4
65 2 76 -12 76 -9 0 -16 6 -16 14 0 7 -11 21 -25 30 -29 19 -35 70 -9 80 11 4
19 -4 30 -29 8 -19 18 -35 23 -35 5 0 9 48 10 106 2 95 0 106 -14 100 -9 -3
-19 -6 -21 -6 -2 0 -4 -6 -4 -13 0 -17 -44 -59 -53 -50 -4 3 -7 15 -7 25 0 10
-4 18 -9 18 -5 0 -11 -26 -14 -57 -2 -32 -9 -84 -16 -115 -10 -51 -10 -63 5
-94 10 -20 17 -51 16 -68 -1 -17 -3 -71 -5 -121 -2 -49 -7 -98 -11 -107 -5
-10 -1 -27 10 -43 9 -14 15 -28 12 -30 -3 -3 -28 -7 -56 -9 -40 -4 -57 0 -75
14 -27 22 -37 17 -37 -15 0 -13 -7 -42 -16 -66 -25 -70 -73 -243 -69 -250 6
-9 -45 -30 -57 -23 -7 4 -6 9 2 14 7 4 11 24 10 44 -5 75 -4 133 5 203 6 54 5
76 -5 88 -15 18 1 20 18 3 9 -9 12 -7 12 9 0 12 5 25 10 28 15 9 7 150 -10
170 -19 23 -17 102 3 123 16 15 19 15 39 -5 14 -14 22 -35 22 -58 1 -35 2 -36
30 -31 16 4 32 9 35 12 3 3 6 57 7 121 l1 115 -35 16 c-33 16 -35 16 -52 -6
-20 -24 -40 -29 -40 -9 0 7 9 49 21 92 14 56 18 92 14 130 -7 56 5 94 43 128
14 13 22 37 27 77 7 59 23 85 54 85 20 0 32 53 36 169 4 93 17 141 41 150 16
6 20 91 4 101 -6 4 -2 14 8 25 18 19 52 21 102 5 20 -6 20 -5 20 664 l0 669
-30 7 c-43 9 -79 67 -91 146 -5 35 -12 81 -16 101 -6 41 -24 49 -98 45 -57 -4
-71 -14 -49 -38 14 -15 15 -21 4 -34 -12 -14 -15 -14 -34 3 -12 11 -42 27 -68
37 -55 20 -65 40 -43 90 19 47 19 64 -1 86 -8 9 -18 41 -21 71 l-5 54 63 27
c35 15 82 43 104 63 48 42 78 51 111 34 18 -10 30 -11 49 -2 14 7 48 12 75 12
l50 0 0 744 c0 736 0 745 -20 751 -11 3 -20 10 -20 15 0 13 -41 19 -45 7z
m-2065 -367 c-20 -13 -40 -13 -40 0 0 6 12 10 28 10 21 0 24 -2 12 -10z m28
-21 c-2 -6 -8 -10 -13 -10 -5 0 -11 4 -13 10 -2 6 4 11 13 11 9 0 15 -5 13
-11z m-1452 -76 c-10 -10 -19 5 -10 18 6 11 8 11 12 0 2 -7 1 -15 -2 -18z
m1732 -177 c15 -8 35 -23 45 -34 18 -20 18 -20 -10 -25 -100 -19 -106 -19 -99
-1 4 10 1 21 -6 26 -11 6 -10 8 0 8 7 0 10 5 7 10 -3 6 -17 10 -29 10 -13 0
-30 7 -37 17 -13 15 -9 16 44 9 32 -3 71 -13 85 -20z m1776 -31 c16 -12 18
-19 8 -40 -6 -14 -16 -25 -22 -25 -5 0 -10 -7 -10 -15 0 -8 -4 -15 -10 -15
-11 0 -14 93 -3 103 9 10 15 8 37 -8z m-1696 -67 c-2 -12 -10 -23 -18 -25 -13
-4 -13 -3 0 6 13 9 13 11 -2 11 -9 0 -19 -4 -22 -8 -6 -10 -86 -2 -86 9 0 12
46 23 65 15 8 -3 15 -1 15 4 0 6 12 10 26 10 20 0 25 -4 22 -22z m1606 -294
c23 -9 20 -24 -4 -24 -11 0 -20 7 -20 15 0 17 2 18 24 9z m-4165 -61 c-6 -21
-14 -47 -19 -58 -5 -11 -14 -38 -21 -60 -12 -38 -13 -39 -22 -17 -13 29 4 102
34 143 28 40 39 36 28 -8z m4067 -108 c10 -8 26 -15 35 -15 9 0 32 -15 53 -32
35 -32 36 -34 21 -55 -20 -29 -31 -29 -38 -2 -5 19 -10 21 -54 14 -26 -4 -56
-13 -67 -21 -26 -18 -44 -18 -80 1 -15 8 -37 15 -47 15 -25 0 -31 14 -24 54 6
32 9 34 38 30 18 -3 43 2 57 10 33 19 82 19 106 1z m-2986 -141 c0 -28 5 -44
15 -48 8 -3 15 -12 15 -21 0 -17 25 -21 35 -5 3 5 14 2 26 -8 18 -16 18 -18 2
-29 -20 -15 -18 -16 25 -4 29 9 31 8 22 -9 -8 -16 -6 -18 15 -15 20 2 23 0 14
-11 -11 -13 -6 -18 14 -15 4 0 7 -3 7 -9 0 -6 6 -10 14 -10 8 0 16 -4 18 -9 2
-5 21 -11 43 -13 22 -1 44 -7 48 -13 6 -6 10 -5 14 3 4 10 8 10 18 2 10 -8 19
-8 34 -1 11 6 22 7 25 2 10 -16 70 -20 136 -8 51 9 59 13 40 18 -18 5 -10 7
28 8 28 1 52 -3 52 -8 0 -5 20 -9 45 -8 25 1 45 6 45 10 0 5 5 5 11 2 6 -4 8
-13 5 -21 -3 -8 1 -14 8 -14 21 0 76 -74 76 -101 0 -18 3 -20 9 -10 11 18 35
-51 26 -78 -4 -13 3 -26 25 -44 16 -14 30 -30 30 -36 0 -6 5 -11 11 -11 6 0 9
-6 6 -12 -2 -7 3 -18 12 -25 14 -11 13 -12 -6 -13 -13 0 -23 5 -23 12 0 6 -3
9 -6 5 -10 -10 7 -67 20 -67 10 0 11 -15 4 -62 -12 -87 -16 -98 -41 -98 -17 0
-19 -2 -8 -9 11 -7 9 -11 -8 -20 -27 -15 -27 -37 -1 -44 20 -5 28 -27 10 -27
-5 0 -10 -5 -10 -11 0 -7 9 -9 24 -5 15 4 29 0 39 -12 15 -17 14 -18 -18 -14
-21 3 -35 0 -35 -7 0 -7 -16 -8 -46 -4 -39 5 -49 3 -60 -12 -11 -14 -30 -19
-86 -22 -40 -2 -74 -8 -76 -13 -2 -6 -12 -10 -22 -10 -20 0 -114 -27 -146 -42
-11 -5 -27 -8 -35 -6 -8 1 -23 -6 -35 -17 -11 -11 -35 -32 -52 -48 -27 -23
-32 -34 -32 -71 0 -24 -7 -63 -15 -87 -12 -32 -13 -50 -5 -69 16 -40 18 -312
2 -329 -12 -13 -8 -50 8 -61 11 -8 19 -40 25 -101 l5 -56 -50 -50 c-38 -38
-61 -52 -100 -61 -29 -7 -58 -12 -66 -12 -17 0 -84 47 -97 68 -13 20 -149 14
-145 -6 4 -18 44 -48 78 -57 19 -5 21 -4 10 4 -12 9 -12 11 3 17 34 13 137
-45 137 -78 0 -19 -25 -25 -35 -7 -5 7 -13 5 -24 -5 -10 -9 -20 -13 -24 -10
-4 4 -2 -8 3 -27 6 -19 10 -41 10 -49 0 -13 -1 -13 -10 0 -5 8 -14 16 -20 16
-5 1 -14 2 -20 3 -5 0 -10 8 -10 16 0 25 -18 17 -27 -12 l-9 -26 -17 34 -17
34 0 -36 c0 -34 -14 -59 -33 -59 -5 0 -2 11 7 25 9 13 16 34 16 47 0 20 -1 20
-12 5 -7 -9 -31 -26 -53 -37 -40 -20 -72 -28 -45 -10 12 8 9 10 -12 10 -15 0
-30 -4 -33 -10 -3 -5 -13 -10 -22 -10 -13 0 -13 3 -3 15 18 21 11 25 -30 15
-19 -4 -26 -8 -15 -9 16 -1 17 -3 6 -10 -10 -7 -19 -4 -27 7 -10 13 -14 14
-27 3 -9 -7 -21 -10 -27 -6 -6 4 -17 1 -25 -5 -11 -9 -15 -9 -15 -1 0 6 5 11
10 11 6 0 10 5 10 10 0 18 -43 10 -67 -12 -23 -21 -32 -45 -13 -33 15 9 12
-11 -3 -24 -8 -6 -14 -25 -15 -41 -1 -25 3 -30 17 -25 13 4 20 -1 24 -15 3
-12 0 -20 -8 -20 -8 0 -11 -7 -8 -19 3 -10 -1 -22 -7 -26 -9 -5 -10 -1 -5 14
5 15 2 21 -9 21 -9 0 -16 -7 -16 -16 0 -9 -5 -12 -11 -8 -7 4 -10 26 -6 58 2
28 2 43 0 34 -2 -10 -11 -18 -19 -18 -12 0 -13 4 -3 21 8 15 8 24 0 32 -6 6
-11 29 -11 51 0 21 -3 36 -7 33 -3 -4 -14 0 -23 8 -16 15 -18 14 -22 -15 -3
-21 0 -30 10 -30 11 0 13 -9 8 -45 -6 -34 -4 -46 7 -51 8 -3 14 -17 14 -32 1
-87 6 -152 13 -152 5 0 6 -9 3 -20 -7 -28 -20 -25 -31 8 l-10 27 -7 -27 c-4
-14 -15 -28 -26 -31 -10 -3 -23 -15 -27 -28 -6 -16 -11 -19 -16 -10 -5 7 -5
15 -2 18 3 3 -2 12 -12 19 -16 13 -16 13 0 14 15 0 16 4 6 25 -6 14 -17 25
-25 25 -7 0 -13 9 -13 19 0 11 -5 21 -11 23 -6 2 -11 17 -11 33 0 17 -6 40
-14 52 -21 33 -18 46 9 39 21 -5 24 -2 25 22 1 29 -23 70 -35 59 -4 -4 -1 -13
5 -19 18 -18 15 -28 -8 -28 -15 0 -20 7 -20 25 0 14 -4 25 -9 25 -4 0 -7 24
-5 53 2 41 1 46 -5 22 -8 -28 -9 -28 -6 7 2 21 -1 41 -6 44 -12 7 -11 34 1 34
6 0 13 -13 17 -30 9 -49 33 -38 33 16 0 57 22 56 31 -1 4 -22 12 -41 18 -43
16 -5 14 -29 -4 -36 -10 -4 -15 1 -15 14 0 34 -17 22 -23 -17 -4 -24 -2 -40 6
-45 20 -13 37 -9 31 7 -4 8 -2 15 3 15 13 0 34 46 29 62 -3 7 -7 37 -11 65 -5
43 -3 52 9 47 18 -7 28 9 20 30 -5 13 -10 14 -20 5 -7 -6 -19 -7 -25 -3 -10 6
-9 9 3 13 13 5 14 11 4 41 -8 27 -17 36 -38 38 -16 2 -28 8 -28 13 0 5 -7 9
-15 9 -10 0 -15 10 -15 29 0 16 -6 34 -13 40 -8 6 -13 27 -12 48 1 21 -5 48
-13 60 -7 12 -11 31 -7 43 4 11 2 20 -4 20 -6 0 -11 7 -11 15 0 8 -4 15 -10
15 -5 0 -10 7 -10 16 0 14 -3 14 -15 4 -11 -9 -15 -9 -15 -1 0 7 15 18 34 26
37 16 54 61 36 95 -6 10 -10 30 -10 45 0 37 -21 116 -30 110 -4 -2 4 17 17 42
14 29 21 55 17 67 -11 34 -13 105 -4 111 5 3 4 20 -1 37 -10 36 -5 46 14 29
11 -8 19 -6 37 9 13 11 29 20 36 20 8 0 11 6 8 15 -4 8 -16 15 -28 15 -17 0
-18 -2 -6 -10 8 -5 11 -12 8 -15 -14 -14 -29 8 -27 39 2 17 0 37 -5 44 -4 7
-1 12 9 12 8 0 18 -7 21 -15 9 -23 24 -7 24 25 0 16 5 32 10 35 8 5 7 11 -1
21 -8 10 -8 14 0 14 6 0 11 7 11 15 0 8 4 15 10 15 5 0 7 7 4 15 -4 9 -1 15 7
15 8 0 15 12 16 30 1 17 -2 30 -8 30 -6 0 -1 13 11 30 12 16 18 34 15 40 -3 5
1 10 9 10 19 0 22 50 4 68 -9 9 -9 12 1 12 10 0 12 9 7 31 -5 25 -3 30 9 25
13 -5 14 -2 4 15 -9 17 -7 24 10 40 25 24 26 28 4 44 -19 14 -10 35 16 35 13
0 20 10 25 31 4 20 13 33 26 36 15 4 19 11 14 22 -20 49 -18 54 14 49 25 -4
29 -2 21 9 -7 7 -18 13 -25 13 -8 0 -14 5 -14 10 0 13 13 13 27 -1 6 -6 22 -7
39 -3 29 8 29 8 5 14 -14 3 -26 10 -28 15 -4 12 57 13 74 2 7 -4 38 -3 70 2
31 6 58 11 60 11 2 0 3 9 3 20 0 25 11 25 83 0 57 -20 150 -30 163 -17 4 3 1
13 -6 22 -15 18 -11 19 26 5 24 -9 26 -8 21 10 -6 22 17 29 27 8 8 -17 0 50
-9 77 -7 20 -6 20 9 1 9 -11 16 -38 16 -62z m2626 68 c6 -4 13 -19 16 -35 5
-27 4 -27 -31 -21 -20 4 -39 9 -43 11 -10 5 -10 37 -1 46 9 9 45 9 59 -1z
m-2983 -95 c9 -1 17 -7 17 -15 0 -8 -7 -11 -17 -8 -10 2 -33 7 -50 11 -46 9
-50 23 -5 18 20 -3 45 -5 55 -6z m3097 -46 c0 -6 -4 -13 -10 -16 -5 -3 -10 1
-10 9 0 9 5 16 10 16 6 0 10 -4 10 -9z m-80 -40 c0 -5 3 -23 6 -40 6 -27 4
-31 -14 -31 -27 0 -33 11 -26 49 6 27 34 46 34 22z m174 -67 c17 -6 12 -25
-16 -66 -24 -35 -29 -35 -50 1 -18 32 -15 41 14 41 10 0 21 7 24 15 7 17 7 17
28 9z m-1174 -24 c-19 -13 -30 -13 -30 0 0 6 10 10 23 10 18 0 19 -2 7 -10z
m-50 -40 c-20 -13 -33 -13 -25 0 3 6 14 10 23 10 15 0 15 -2 2 -10z m70 -15
c0 -14 -5 -25 -11 -25 -5 0 -7 6 -4 13 4 6 -1 3 -9 -7 -9 -11 -16 -24 -16 -29
0 -4 -4 -6 -9 -3 -5 3 -12 -2 -16 -12 -6 -16 -7 -16 -16 1 -11 18 -4 37 13 37
5 0 19 11 30 25 11 14 24 25 29 25 5 0 9 -11 9 -25z m-750 -125 c8 -5 12 -11
10 -14 -3 -2 -14 2 -24 10 -22 15 -10 19 14 4z m55 -81 c10 -15 -1 -22 -24
-14 -12 3 -21 15 -21 26 0 16 3 18 19 9 11 -5 23 -15 26 -21z m-40 -349 c3 -5
2 -10 -4 -10 -5 0 -13 5 -16 10 -3 6 -2 10 4 10 5 0 13 -4 16 -10z m-116 -330
c18 -11 -136 -12 -199 -1 l-35 6 45 5 c63 7 169 2 189 -10z m-242 4 c-3 -3
-12 -4 -19 -1 -8 3 -5 6 6 6 11 1 17 -2 13 -5z m25 -72 c5 -18 13 -30 17 -27
5 3 7 -4 4 -15 -5 -21 11 -28 22 -10 4 6 12 4 21 -5 9 -8 29 -15 45 -15 16 0
29 -4 29 -10 0 -5 -11 -10 -25 -10 -26 0 -34 -15 -12 -23 17 -6 81 4 88 15 8
13 39 -2 39 -19 0 -10 -6 -12 -19 -8 -16 5 -18 2 -14 -15 6 -21 0 -23 -67 -22
-33 1 -34 0 -16 -13 18 -14 79 -21 130 -16 11 1 28 8 37 17 12 11 19 12 24 4
8 -12 45 20 45 40 0 5 5 10 10 10 13 0 13 -23 -1 -37 -12 -12 -4 -33 12 -33 5
0 14 11 19 25 5 14 13 25 18 25 18 0 77 -67 79 -90 2 -14 4 -44 7 -67 2 -29 0
-43 -8 -43 -7 0 -12 -15 -12 -37 0 -20 -5 -38 -11 -40 -7 -3 -17 -21 -24 -41
-13 -42 -37 -68 -65 -74 -12 -2 -20 -13 -22 -29 -2 -15 -13 -32 -27 -39 -13
-7 -26 -21 -28 -31 -3 -13 -11 -17 -21 -13 -12 5 -19 -2 -27 -25 -7 -19 -18
-31 -29 -31 -16 0 -18 -6 -13 -35 4 -24 2 -35 -6 -35 -7 0 -10 4 -6 9 3 5 1
12 -4 15 -9 6 -27 -85 -23 -119 4 -29 -7 -65 -18 -65 -6 0 -10 6 -10 14 0 15
-28 42 -35 34 -3 -3 0 -28 7 -57 16 -69 0 -88 -37 -45 -24 28 -34 32 -102 37
-18 1 -35 6 -39 10 -13 12 -24 8 -18 -8 4 -8 3 -15 -1 -15 -9 0 -45 40 -45 50
0 4 -12 5 -26 2 -16 -3 -30 1 -35 9 -6 10 -9 10 -9 2 0 -7 -4 -13 -10 -13 -5
0 -8 16 -6 37 3 27 10 40 30 50 40 21 67 45 76 70 9 23 -14 137 -32 160 -13
16 -21 100 -11 116 12 20 2 179 -14 220 -16 38 -10 64 7 37 6 -8 10 -10 10 -5
0 6 -16 27 -35 48 -19 21 -35 46 -36 55 0 10 -3 12 -6 5 -6 -17 -20 -16 -27 2
-8 23 22 85 42 85 10 0 23 5 30 12 7 7 12 8 12 2 0 -6 -9 -19 -20 -29 -22 -20
-27 -50 -7 -41 6 3 20 9 30 12 11 4 16 13 13 21 -4 9 1 17 14 20 11 3 20 9 20
14 0 5 5 9 11 9 6 0 25 11 41 25 39 33 59 29 70 -13z m214 0 c17 -12 24 -40
11 -50 -15 -12 -77 -26 -77 -18 0 9 44 76 50 76 3 0 10 -4 16 -8z m-1723 -61
c3 8 6 -12 6 -44 1 -55 0 -57 -20 -47 -20 11 -20 12 -2 25 17 13 17 14 0 27
-12 9 -16 20 -11 32 5 12 9 14 14 6 6 -9 9 -9 13 1z m1932 -50 c3 -5 1 -12 -5
-16 -5 -3 -10 1 -10 9 0 18 6 21 15 7z m69 -37 c8 -21 -1 -34 -20 -27 -8 3
-12 8 -10 11 3 3 1 11 -5 19 -9 10 -7 13 9 13 11 0 23 -7 26 -16z m-2004 -33
c0 -5 -7 -11 -15 -15 -15 -5 -20 5 -8 17 9 10 23 9 23 -2z m18 -31 c-7 -10
-14 -18 -15 -16 -6 6 9 36 18 36 5 0 4 -9 -3 -20z m1269 -22 c-3 -7 -5 -2 -5
12 0 14 2 19 5 13 2 -7 2 -19 0 -25z m-1301 -15 c-11 -11 -17 4 -9 23 7 18 8
18 11 1 2 -10 1 -21 -2 -24z m64 -303 c0 -5 -7 -10 -15 -10 -8 0 -15 5 -15 10
0 6 7 10 15 10 8 0 15 -4 15 -10z m30 -150 c0 -5 -2 -10 -4 -10 -3 0 -8 5 -11
10 -3 6 -1 10 4 10 6 0 11 -4 11 -10z m-38 -42 c-9 -9 -12 -7 -12 12 0 19 3
21 12 12 9 -9 9 -15 0 -24z m15 -34 c-3 -3 -12 -4 -19 -1 -8 3 -5 6 6 6 11 1
17 -2 13 -5z m1640 -66 c-3 -8 -6 -5 -6 6 -1 11 2 17 5 13 3 -3 4 -12 1 -19z
m-637 -36 c0 -19 -5 -29 -15 -29 -8 0 -15 6 -15 13 0 6 -8 15 -17 19 -17 7
-16 8 2 15 35 15 45 11 45 -18z m-70 9 c0 -5 -7 -22 -15 -37 -15 -29 -20 -17
-9 24 6 21 24 31 24 13z m256 -16 c1 -15 -2 -25 -8 -23 -5 2 -9 7 -9 11 1 4 1
14 1 22 0 26 15 16 16 -10z m-144 -16 c-4 -39 -17 -41 -19 -3 -1 23 2 34 10
31 7 -2 11 -15 9 -28z m118 27 c0 -3 -4 -8 -10 -11 -5 -3 -10 -1 -10 4 0 6 5
11 10 11 6 0 10 -2 10 -4z m-170 -72 c0 -8 -4 -14 -10 -14 -5 0 -10 -7 -10
-16 0 -8 4 -13 9 -9 5 3 16 -2 25 -11 9 -8 21 -12 27 -8 6 3 15 0 20 -7 7 -11
9 -11 9 -1 0 9 9 7 29 -8 16 -11 33 -19 38 -18 20 5 133 -42 133 -56 0 -4 -21
-5 -47 -2 -132 18 -148 18 -192 -2 -34 -16 -50 -18 -72 -10 -16 5 -29 14 -29
18 0 14 -59 23 -145 24 -80 1 -105 8 -105 28 0 7 18 9 51 6 38 -4 52 -2 56 9
4 10 8 11 13 4 10 -17 70 -2 70 18 0 14 2 14 10 1 7 -12 10 -8 11 15 l1 30 13
-30 c10 -20 14 -24 15 -12 0 13 5 17 19 12 15 -4 20 1 25 29 5 25 11 34 21 29
8 -3 15 -11 15 -19z m-360 -64 c0 -5 -5 -10 -11 -10 -5 0 -7 5 -4 10 3 6 8 10
11 10 2 0 4 -4 4 -10z m30 -34 c0 -17 -37 -24 -70 -15 -23 6 -22 7 8 8 19 1
35 7 38 16 7 17 24 10 24 -9z m66 -75 c65 -11 130 -22 144 -26 14 -4 94 -8
179 -10 112 -3 156 -7 162 -17 5 -7 4 -17 -1 -22 -15 -15 -12 -26 6 -26 13 0
15 7 10 31 -5 25 -3 30 12 27 10 -2 16 -11 14 -21 -4 -21 23 -22 62 -2 32 17
46 19 46 7 0 -14 -129 -78 -205 -101 -59 -19 -83 -21 -155 -15 -47 3 -92 8
-100 9 -38 7 -125 16 -130 14 -3 -1 -15 3 -27 10 -18 9 -23 9 -24 -1 0 -7 -5
-3 -11 10 -6 13 -17 21 -23 18 -7 -2 -34 13 -60 35 -26 22 -50 38 -52 35 -9
-9 10 -56 23 -56 8 0 11 -6 8 -15 -4 -10 0 -15 12 -15 16 0 16 -2 4 -10 -17
-10 -16 -11 30 -33 19 -9 47 -26 62 -38 15 -12 44 -24 65 -26 21 -2 39 -7 41
-11 1 -4 20 -6 41 -4 31 3 41 0 50 -16 8 -15 8 -22 -2 -25 -6 -3 -7 -6 -1 -6
5 -1 19 7 30 17 26 23 59 29 51 8 -4 -9 -2 -16 3 -16 6 0 10 4 10 9 0 9 129
26 168 22 14 -2 22 3 22 12 0 11 11 15 37 15 21 0 39 5 41 12 2 6 10 16 18 23
8 7 22 19 31 27 18 16 46 34 80 49 11 5 24 15 28 21 9 15 25 2 25 -21 0 -11 4
-18 9 -14 5 3 12 -4 16 -15 8 -24 -19 -55 -40 -46 -20 7 -25 7 -27 -1 -5 -24
-38 -70 -57 -79 -18 -9 -19 -13 -7 -23 11 -9 15 -9 19 1 4 10 8 10 17 -2 9
-12 10 -10 5 9 -7 21 -5 23 16 18 13 -4 30 -7 37 -7 6 0 12 -4 12 -10 0 -5 -6
-10 -12 -10 -16 -1 -63 -39 -56 -46 3 -3 13 2 22 11 9 10 24 14 33 11 14 -6
13 -9 -6 -23 -18 -12 -20 -17 -10 -25 10 -6 7 -7 -8 -3 -13 3 -23 2 -23 -3 0
-5 -13 -7 -30 -4 -31 4 -36 -3 -21 -27 5 -8 14 -10 21 -6 9 5 11 4 6 -3 -11
-19 -46 -14 -46 6 0 14 -2 14 -9 3 -8 -12 -14 -13 -37 -3 -14 7 -28 11 -29 10
-7 -7 22 -36 40 -40 12 -2 16 -6 9 -10 -6 -4 -28 1 -49 12 -41 21 -62 17 -32
-5 17 -12 15 -45 -3 -45 -22 0 -40 14 -40 31 0 10 -6 19 -12 19 -23 0 -37 -15
-35 -35 1 -11 -4 -20 -13 -20 -8 0 -16 -8 -18 -19 -3 -13 0 -16 10 -10 7 5 15
9 18 10 3 0 13 4 22 8 9 4 25 3 35 -3 10 -6 12 -11 5 -11 -10 0 -10 -5 -2 -20
7 -13 7 -26 2 -36 -7 -13 -11 -9 -16 17 -6 31 -8 32 -18 14 -16 -28 -30 -36
-52 -29 -10 4 -23 0 -28 -7 -7 -10 -8 -8 -5 8 6 29 -13 42 -20 14 -3 -12 -12
-21 -19 -21 -21 0 -17 44 5 60 11 7 18 17 15 22 -9 14 -44 -38 -44 -64 0 -16
-3 -19 -9 -10 -6 11 -14 8 -34 -12 -28 -28 -26 -31 -28 34 0 25 -19 27 -20 3
-1 -10 -1 -22 0 -26 1 -5 -3 -6 -9 -2 -15 9 -50 -13 -51 -33 0 -11 -4 -9 -10
8 -10 23 -11 24 -21 7 -9 -18 -11 -18 -29 -1 -10 9 -19 26 -19 36 0 12 -6 18
-17 16 -13 -2 -19 6 -23 32 -4 28 -7 31 -13 16 -4 -10 -10 -16 -14 -13 -3 4
-15 -6 -26 -20 l-21 -26 -8 29 c-5 21 -4 31 7 37 20 11 20 38 -1 30 -10 -4
-17 1 -21 16 -3 11 -9 21 -14 21 -13 0 -11 -28 2 -32 7 -2 5 -9 -5 -17 -14
-12 -16 -11 -16 8 0 13 -8 23 -24 27 -13 3 -29 16 -36 30 -16 28 -23 30 -44 9
-13 -14 -16 -13 -30 7 -9 12 -16 30 -16 40 0 11 -10 20 -25 24 -18 5 -23 10
-16 18 7 9 4 18 -11 30 -15 13 -22 15 -28 6 -5 -9 -9 -9 -14 -1 -4 6 0 18 8
27 15 14 17 14 32 0 8 -9 23 -16 32 -16 13 1 10 6 -10 21 -16 11 -28 29 -28
39 0 10 -4 21 -9 24 -14 9 -19 55 -7 61 8 3 7 7 -1 11 -7 3 -13 12 -13 20 0 8
-5 14 -11 14 -5 0 -8 4 -5 9 4 5 0 12 -6 15 -7 3 -2 3 12 -1 20 -5 23 -3 13 8
-9 11 -7 19 7 37 10 12 23 22 29 22 6 0 8 6 5 14 -4 10 5 14 36 14 33 1 40 -2
36 -14 -4 -10 -1 -14 6 -11 7 2 12 11 12 19 -1 14 6 13 55 -3 32 -11 111 -28
177 -38z m571 13 c-3 -3 -12 -4 -19 -1 -8 3 -5 6 6 6 11 1 17 -2 13 -5z m253
-114 c0 -5 -2 -10 -4 -10 -3 0 -8 5 -11 10 -3 6 -1 10 4 10 6 0 11 -4 11 -10z
m-1206 -25 c3 -8 1 -15 -4 -15 -6 0 -10 7 -10 15 0 8 2 15 4 15 2 0 6 -7 10
-15z m376 -444 c-4 -9 -17 -17 -28 -18 -15 -1 -18 4 -14 23 2 13 11 24 19 24
8 0 11 5 8 13 -4 6 0 4 9 -7 10 -12 12 -24 6 -35z m2800 -978 c0 -13 5 -23 11
-23 6 0 4 -7 -5 -15 -19 -20 -28 -19 -49 5 -22 26 -21 29 5 57 24 26 38 17 38
-24z m350 -8 c6 -17 5 -34 -4 -55 -12 -30 -12 -30 -24 -8 -22 46 -24 66 -5 77
24 14 22 14 33 -14z m135 -25 c-3 -5 -10 -10 -16 -10 -5 0 -9 5 -9 10 0 6 7
10 16 10 8 0 12 -4 9 -10z m-45 -146 c0 -16 -23 -44 -36 -44 -5 0 -3 5 4 12 7
7 12 23 12 36 0 13 4 20 10 17 6 -3 10 -13 10 -21z m-1340 -2664 c0 -5 -5 -10
-11 -10 -5 0 -7 5 -4 10 3 6 8 10 11 10 2 0 4 -4 4 -10z"/>
<path d="M2620 7840 c0 -5 4 -10 9 -10 6 0 13 5 16 10 3 6 -1 10 -9 10 -9 0
-16 -4 -16 -10z"/>
<path d="M4030 7480 c0 -5 4 -10 9 -10 6 0 13 5 16 10 3 6 -1 10 -9 10 -9 0
-16 -4 -16 -10z"/>
<path d="M2438 7353 c7 -3 16 -2 19 1 4 3 -2 6 -13 5 -11 0 -14 -3 -6 -6z"/>
<path d="M4066 7301 c-4 -7 -5 -15 -2 -18 9 -9 19 4 14 18 -4 11 -6 11 -12 0z"/>
<path d="M2491 7133 c-6 -13 -19 -22 -29 -21 -9 1 -28 0 -42 -1 -21 -3 -19 -5
13 -12 31 -7 40 -6 58 12 11 11 18 26 16 32 -2 7 -9 2 -16 -10z"/>
<path d="M2580 7125 c-7 -8 -16 -12 -21 -9 -5 3 -9 1 -9 -4 0 -5 -13 -12 -30
-15 -17 -4 -30 -13 -30 -21 0 -18 -58 -31 -92 -21 -19 7 -21 6 -11 -7 7 -8 10
-17 7 -21 -3 -3 4 -3 17 0 17 5 20 3 13 -8 -5 -8 -9 -18 -9 -24 0 -17 -38 -18
-47 -1 -13 23 -45 20 -51 -6 -7 -26 -1 -38 20 -38 12 0 13 -3 4 -13 -8 -11 -5
-16 15 -25 14 -7 32 -12 40 -12 8 0 13 -4 10 -9 -3 -4 7 -14 22 -21 16 -8 22
-14 14 -17 -7 -3 -19 1 -27 7 -8 7 -15 8 -15 4 0 -18 36 -30 70 -23 19 3 29 7
23 8 -7 0 -13 6 -13 11 0 12 47 13 54 1 7 -11 -37 -41 -59 -41 -18 0 -20 -16
-2 -24 16 -8 -43 1 -68 10 -11 4 -17 3 -12 -1 26 -29 130 -51 178 -37 44 12
99 4 99 -14 0 -8 5 -14 10 -14 18 0 11 29 -10 42 -24 15 -26 31 -6 47 12 10
18 7 30 -18 21 -39 29 -44 91 -48 48 -4 55 -1 78 26 14 17 27 36 30 43 3 9 13
6 38 -11 19 -14 38 -30 42 -38 4 -7 17 -13 27 -13 11 0 20 -4 20 -10 0 -14
-17 -12 -43 5 -13 8 -28 11 -35 6 -18 -11 69 -43 103 -39 l26 3 -32 33 c-17
18 -29 35 -27 38 3 3 14 -3 24 -13 11 -11 33 -18 59 -18 39 -1 41 1 42 30 1
16 4 44 8 60 7 33 -12 60 -50 67 -12 2 -19 10 -17 20 2 12 -3 15 -18 11 -16
-4 -19 -2 -13 12 4 12 3 16 -5 11 -6 -4 -21 6 -33 23 -12 17 -26 28 -31 25 -5
-3 -29 6 -53 21 -51 29 -150 44 -252 38 -41 -3 -63 0 -63 6 0 6 17 11 37 11
43 0 41 7 -6 15 -19 3 -38 8 -42 10 -3 3 -12 -2 -19 -10z m-220 -155 c8 -5 12
-11 9 -14 -7 -8 -49 5 -49 15 0 12 21 11 40 -1z m561 -60 c25 -5 73 -21 105
-36 54 -24 57 -27 34 -33 -15 -4 -44 0 -73 11 -34 13 -78 19 -150 19 -56 1
-121 5 -144 9 -24 4 -43 4 -43 1 0 -4 -16 -8 -36 -9 -34 -3 -35 -2 -20 14 9 9
23 13 31 10 8 -3 18 1 22 8 5 8 17 16 28 19 25 7 184 -2 246 -13z"/>
<path d="M2420 7080 l-25 -6 24 -8 c13 -5 27 -4 33 2 14 14 -2 20 -32 12z"/>
<path d="M4008 7073 c6 -2 18 -2 25 0 6 3 1 5 -13 5 -14 0 -19 -2 -12 -5z"/>
<path d="M2280 6906 c0 -9 5 -16 10 -16 6 0 10 4 10 9 0 6 -4 13 -10 16 -5 3
-10 -1 -10 -9z"/>
<path d="M2725 6739 c-10 -14 -1 -21 19 -13 9 3 13 10 10 15 -7 12 -21 11 -29
-2z"/>
<path d="M2846 6743 c-11 -11 -6 -21 14 -26 12 -3 20 0 20 8 0 14 -25 27 -34
18z"/>
<path d="M2805 6730 c-19 -8 -19 -9 3 -9 12 -1 22 4 22 9 0 6 -1 10 -2 9 -2 0
-12 -4 -23 -9z"/>
<path d="M2425 6720 c3 -5 10 -10 16 -10 5 0 9 5 9 10 0 6 -7 10 -16 10 -8 0
-12 -4 -9 -10z"/>
<path d="M2325 6710 c4 -6 11 -8 16 -5 14 9 11 15 -7 15 -8 0 -12 -5 -9 -10z"/>
<path d="M2885 6670 c-23 -26 -19 -27 40 -17 62 12 69 31 12 33 -23 1 -42 -5
-52 -16z"/>
<path d="M2311 6658 c-1 -9 -6 -18 -12 -20 -7 -2 -10 -11 -7 -18 3 -11 8 -9
17 8 7 13 10 28 7 35 -2 7 -5 5 -5 -5z"/>
<path d="M3025 6650 c-3 -5 -1 -10 4 -10 6 0 11 5 11 10 0 6 -2 10 -4 10 -3 0
-8 -4 -11 -10z"/>
<path d="M2446 5992 c-8 -13 13 -93 28 -108 12 -11 13 -7 9 29 -2 23 -6 52 -9
65 -4 22 -18 29 -28 14z"/>
<path d="M3130 5940 c0 -5 4 -10 9 -10 6 0 13 5 16 10 3 6 -1 10 -9 10 -9 0
-16 -4 -16 -10z"/>
<path d="M3131 5884 c0 -11 3 -14 6 -6 3 7 2 16 -1 19 -3 4 -6 -2 -5 -13z"/>
<path d="M2430 5799 c0 -5 5 -7 10 -4 6 3 10 8 10 11 0 2 -4 4 -10 4 -5 0 -10
-5 -10 -11z"/>
<path d="M2390 5660 c0 -5 5 -10 10 -10 6 0 10 5 10 10 0 6 -4 10 -10 10 -5 0
-10 -4 -10 -10z"/>
<path d="M2488 5584 c-5 -4 -8 -21 -7 -38 0 -30 0 -30 10 -7 11 27 8 57 -3 45z"/>
<path d="M3620 6725 c-14 -17 -3 -20 38 -8 18 4 20 8 10 14 -19 13 -34 11 -48
-6z"/>
<path d="M3770 6680 c0 -5 5 -10 11 -10 5 0 7 5 4 10 -3 6 -8 10 -11 10 -2 0
-4 -4 -4 -10z"/>
<path d="M3810 6670 c0 -5 5 -10 10 -10 6 0 10 5 10 10 0 6 -4 10 -10 10 -5 0
-10 -4 -10 -10z"/>
<path d="M3648 6633 c7 -3 16 -2 19 1 4 3 -2 6 -13 5 -11 0 -14 -3 -6 -6z"/>
<path d="M3914 6055 c-9 -22 1 -29 15 -11 8 10 9 16 1 21 -5 3 -13 -1 -16 -10z"/>
<path d="M3468 5543 c7 -3 16 -2 19 1 4 3 -2 6 -13 5 -11 0 -14 -3 -6 -6z"/>
<path d="M3623 5323 c-13 -2 -23 -9 -23 -14 0 -5 -8 -9 -17 -10 -11 0 -13 -3
-5 -6 14 -5 72 18 72 29 0 5 -1 7 -2 7 -2 -1 -13 -4 -25 -6z"/>
<path d="M3210 5291 c0 -6 5 -13 10 -16 6 -3 10 1 10 9 0 9 -4 16 -10 16 -5 0
-10 -4 -10 -9z"/>
<path d="M3290 5285 c0 -8 5 -15 10 -15 6 0 10 7 10 15 0 8 -4 15 -10 15 -5 0
-10 -7 -10 -15z"/>
<path d="M3351 5284 c0 -11 3 -14 6 -6 3 7 2 16 -1 19 -3 4 -6 -2 -5 -13z"/>
<path d="M3570 5276 c0 -2 7 -6 15 -10 8 -3 15 -1 15 4 0 6 -7 10 -15 10 -8 0
-15 -2 -15 -4z"/>
<path d="M2857 5263 c-4 -3 -7 -11 -7 -17 0 -6 5 -5 12 2 6 6 9 14 7 17 -3 3
-9 2 -12 -2z"/>
<path d="M2975 5250 c-3 -5 -2 -10 4 -10 5 0 13 5 16 10 3 6 2 10 -4 10 -5 0
-13 -4 -16 -10z"/>
<path d="M3047 5193 c-4 -3 -7 -11 -7 -17 0 -6 5 -5 12 2 6 6 9 14 7 17 -3 3
-9 2 -12 -2z"/>
<path d="M3490 5190 c0 -5 7 -10 16 -10 8 0 12 5 9 10 -3 6 -10 10 -16 10 -5
0 -9 -4 -9 -10z"/>
<path d="M3142 5120 c0 -14 2 -19 5 -12 2 6 2 18 0 25 -3 6 -5 1 -5 -13z"/>
<path d="M6077 8481 c-3 -12 -1 -21 3 -21 15 0 23 21 12 32 -6 6 -11 2 -15
-11z"/>
<path d="M2030 8420 c0 -5 5 -10 10 -10 6 0 10 5 10 10 0 6 -4 10 -10 10 -5 0
-10 -4 -10 -10z"/>
<path d="M5377 8061 c-5 -22 15 -35 31 -19 13 13 4 38 -13 38 -7 0 -15 -9 -18
-19z"/>
<path d="M1910 7126 c0 -20 25 -37 44 -30 19 7 20 16 4 32 -16 16 -48 15 -48
-2z"/>
<path d="M1950 6666 c0 -8 9 -20 20 -26 17 -9 19 -8 11 12 -9 26 -31 36 -31
14z"/>
<path d="M2186 6318 c-8 -39 -1 -46 23 -24 16 15 18 21 8 37 -17 27 -24 24
-31 -13z"/>
<path d="M6359 5746 c6 -7 9 -20 5 -29 -3 -8 -1 -18 5 -22 7 -4 11 7 11 29 0
27 -4 36 -16 36 -13 0 -14 -3 -5 -14z"/>
<path d="M6320 5437 c0 -19 7 -40 15 -47 12 -10 17 -7 26 16 12 32 2 57 -25
62 -12 3 -16 -4 -16 -31z"/>
<path d="M2261 5394 c0 -11 3 -14 6 -6 3 7 2 16 -1 19 -3 4 -6 -2 -5 -13z"/>
<path d="M2400 5310 c0 -5 5 -10 11 -10 5 0 7 5 4 10 -3 6 -8 10 -11 10 -2 0
-4 -4 -4 -10z"/>
<path d="M6350 5265 c0 -16 6 -25 15 -25 9 0 15 9 15 25 0 16 -6 25 -15 25 -9
0 -15 -9 -15 -25z"/>
<path d="M2455 5231 c-3 -5 -1 -12 5 -16 5 -3 10 1 10 9 0 18 -6 21 -15 7z"/>
<path d="M2394 5206 c-3 -9 -3 -24 1 -33 6 -17 7 -17 21 2 8 10 13 24 11 29
-6 17 -27 18 -33 2z"/>
<path d="M2400 5130 c0 -5 5 -10 10 -10 6 0 10 5 10 10 0 6 -4 10 -10 10 -5 0
-10 -4 -10 -10z"/>
<path d="M6225 5130 c-3 -5 1 -10 10 -10 9 0 13 5 10 10 -3 6 -8 10 -10 10 -2
0 -7 -4 -10 -10z"/>
<path d="M6231 5076 c-17 -20 -6 -51 19 -53 23 -2 25 12 6 45 -11 20 -14 21
-25 8z"/>
<path d="M2210 5014 c0 -8 5 -12 10 -9 6 3 10 10 10 16 0 5 -4 9 -10 9 -5 0
-10 -7 -10 -16z"/>
<path d="M2785 4880 c3 -5 11 -10 16 -10 6 0 7 5 4 10 -3 6 -11 10 -16 10 -6
0 -7 -4 -4 -10z"/>
</g>
</svg>
