<svg width="30" height="30" viewBox="0 0 30 30" fill="none" xmlns="http://www.w3.org/2000/svg">
<rect width="30" height="30" rx="3" fill="#1074EB"/>
<path d="M9.17 21C9.3766 20.4145 9.75974 19.9074 10.2666 19.5488C10.7735 19.1901 11.3791 18.9976 12 18.9976C12.6209 18.9976 13.2265 19.1901 13.7334 19.5488C14.2403 19.9074 14.6234 20.4145 14.83 21H25V23H14.83C14.6234 23.5855 14.2403 24.0926 13.7334 24.4512C13.2265 24.8099 12.6209 25.0025 12 25.0025C11.3791 25.0025 10.7735 24.8099 10.2666 24.4512C9.75974 24.0926 9.3766 23.5855 9.17 23H5V21H9.17ZM15.17 14C15.3766 13.4145 15.7597 12.9074 16.2666 12.5488C16.7735 12.1901 17.3791 11.9976 18 11.9976C18.6209 11.9976 19.2265 12.1901 19.7334 12.5488C20.2403 12.9074 20.6234 13.4145 20.83 14H25V16H20.83C20.6234 16.5855 20.2403 17.0926 19.7334 17.4512C19.2265 17.8099 18.6209 18.0025 18 18.0025C17.3791 18.0025 16.7735 17.8099 16.2666 17.4512C15.7597 17.0926 15.3766 16.5855 15.17 16H5V14H15.17ZM9.17 7C9.3766 6.41447 9.75974 5.90744 10.2666 5.54879C10.7735 5.19015 11.3791 4.99755 12 4.99755C12.6209 4.99755 13.2265 5.19015 13.7334 5.54879C14.2403 5.90744 14.6234 6.41447 14.83 7H25V9H14.83C14.6234 9.58553 14.2403 10.0926 13.7334 10.4512C13.2265 10.8099 12.6209 11.0025 12 11.0025C11.3791 11.0025 10.7735 10.8099 10.2666 10.4512C9.75974 10.0926 9.3766 9.58553 9.17 9H5V7H9.17ZM12 9C12.2652 9 12.5196 8.89464 12.7071 8.70711C12.8946 8.51957 13 8.26522 13 8C13 7.73478 12.8946 7.48043 12.7071 7.29289C12.5196 7.10536 12.2652 7 12 7C11.7348 7 11.4804 7.10536 11.2929 7.29289C11.1054 7.48043 11 7.73478 11 8C11 8.26522 11.1054 8.51957 11.2929 8.70711C11.4804 8.89464 11.7348 9 12 9ZM18 16C18.2652 16 18.5196 15.8946 18.7071 15.7071C18.8946 15.5196 19 15.2652 19 15C19 14.7348 18.8946 14.4804 18.7071 14.2929C18.5196 14.1054 18.2652 14 18 14C17.7348 14 17.4804 14.1054 17.2929 14.2929C17.1054 14.4804 17 14.7348 17 15C17 15.2652 17.1054 15.5196 17.2929 15.7071C17.4804 15.8946 17.7348 16 18 16ZM12 23C12.2652 23 12.5196 22.8946 12.7071 22.7071C12.8946 22.5196 13 22.2652 13 22C13 21.7348 12.8946 21.4804 12.7071 21.2929C12.5196 21.1054 12.2652 21 12 21C11.7348 21 11.4804 21.1054 11.2929 21.2929C11.1054 21.4804 11 21.7348 11 22C11 22.2652 11.1054 22.5196 11.2929 22.7071C11.4804 22.8946 11.7348 23 12 23Z" fill="white"/>
</svg>
