<svg width="60" height="60" viewBox="0 0 60 60" fill="none" xmlns="http://www.w3.org/2000/svg">
<g filter="url(#filter0_d_1598_1023)">
<circle cx="30" cy="22" r="15" fill="white"/>
</g>
<path d="M34.5003 30.3334C31.0981 30.329 27.8364 28.9755 25.4307 26.5697C23.0249 24.164 21.6714 20.9023 21.667 17.5001C21.667 16.4834 22.0709 15.5084 22.7897 14.7895C23.5086 14.0706 24.4837 13.6667 25.5003 13.6667C25.7156 13.6651 25.9305 13.6846 26.142 13.7251C26.3464 13.7553 26.5474 13.8055 26.742 13.8751C26.8789 13.9231 27.0008 14.006 27.0958 14.1156C27.1908 14.2252 27.2556 14.3577 27.2837 14.5001L28.4253 19.5001C28.4561 19.6358 28.4524 19.777 28.4145 19.911C28.3767 20.0449 28.3059 20.1672 28.2087 20.2667C28.1003 20.3834 28.092 20.3917 27.067 20.9251C27.8878 22.7258 29.328 24.1719 31.1253 25.0001C31.667 23.9667 31.6753 23.9584 31.792 23.8501C31.8915 23.7528 32.0138 23.682 32.1478 23.6442C32.2817 23.6063 32.4229 23.6026 32.5587 23.6334L37.5587 24.7751C37.6964 24.807 37.8238 24.8735 37.9287 24.9683C38.0337 25.063 38.1128 25.1829 38.1587 25.3167C38.229 25.5145 38.282 25.7181 38.317 25.9251C38.3505 26.1345 38.3673 26.3463 38.367 26.5584C38.3516 27.5707 37.9364 28.5358 37.212 29.2431C36.4875 29.9504 35.5127 30.3423 34.5003 30.3334V30.3334ZM25.5003 15.3334C24.9264 15.3356 24.3765 15.5646 23.9707 15.9704C23.5648 16.3763 23.3359 16.9261 23.3337 17.5001C23.3359 20.461 24.5131 23.3 26.6067 25.3936C28.7004 27.4873 31.5394 28.6645 34.5003 28.6667C35.0743 28.6645 35.6241 28.4355 36.03 28.0297C36.4358 27.6238 36.6648 27.074 36.667 26.5001V26.2251L32.8003 25.3334L32.5587 25.7917C32.1837 26.5167 31.9087 27.0417 31.2087 26.7584C29.8277 26.2641 28.5742 25.4684 27.5393 24.4291C26.5043 23.3898 25.7138 22.133 25.2253 20.7501C24.9253 20.1001 25.492 19.8001 26.2087 19.4251L26.667 19.2001L25.7753 15.3334H25.5003Z" fill="#FF9900"/>
<defs>
<filter id="filter0_d_1598_1023" x="0" y="0" width="60" height="60" filterUnits="userSpaceOnUse" color-interpolation-filters="sRGB">
<feFlood flood-opacity="0" result="BackgroundImageFix"/>
<feColorMatrix in="SourceAlpha" type="matrix" values="0 0 0 0 0 0 0 0 0 0 0 0 0 0 0 0 0 0 127 0" result="hardAlpha"/>
<feOffset dy="8"/>
<feGaussianBlur stdDeviation="7.5"/>
<feComposite in2="hardAlpha" operator="out"/>
<feColorMatrix type="matrix" values="0 0 0 0 0.220833 0 0 0 0 0.220833 0 0 0 0 0.220833 0 0 0 0.2 0"/>
<feBlend mode="normal" in2="BackgroundImageFix" result="effect1_dropShadow_1598_1023"/>
<feBlend mode="normal" in="SourceGraphic" in2="effect1_dropShadow_1598_1023" result="shape"/>
</filter>
</defs>
</svg>
