<svg width="23" height="23" viewBox="0 0 23 23" fill="none" xmlns="http://www.w3.org/2000/svg">
<path d="M13.0107 16.5514L8.11363 13.8805C7.64356 14.3471 7.04586 14.6641 6.3959 14.7915C5.74593 14.9189 5.07279 14.8511 4.46134 14.5965C3.8499 14.3419 3.32751 13.912 2.96004 13.3609C2.59258 12.8098 2.39648 12.1623 2.39648 11.5C2.39648 10.8377 2.59258 10.1902 2.96004 9.6391C3.32751 9.08805 3.8499 8.65813 4.46134 8.40353C5.07279 8.14894 5.74593 8.08107 6.3959 8.20849C7.04586 8.3359 7.64356 8.65289 8.11363 9.1195L13.0107 6.44863C12.8428 5.66063 12.9641 4.8385 13.3524 4.13258C13.7408 3.42667 14.3703 2.88414 15.1258 2.60421C15.8814 2.32428 16.7124 2.32566 17.467 2.6081C18.2215 2.89053 18.8492 3.43514 19.2353 4.14234C19.6213 4.84954 19.7399 5.67207 19.5693 6.45951C19.3988 7.24695 18.9505 7.94668 18.3064 8.43075C17.6623 8.91482 16.8655 9.15087 16.0617 9.09573C15.2579 9.0406 14.5008 8.69797 13.9288 8.1305L9.03171 10.8014C9.1294 11.262 9.1294 11.738 9.03171 12.1986L13.9288 14.8695C14.5008 14.302 15.2579 13.9594 16.0617 13.9043C16.8655 13.8491 17.6623 14.0852 18.3064 14.5693C18.9505 15.0533 19.3988 15.7531 19.5693 16.5405C19.7399 17.3279 19.6213 18.1505 19.2353 18.8577C18.8492 19.5649 18.2215 20.1095 17.467 20.3919C16.7124 20.6743 15.8814 20.6757 15.1258 20.3958C14.3703 20.1159 13.7408 19.5733 13.3524 18.8674C12.9641 18.1615 12.8428 17.3394 13.0107 16.5514Z" fill="white"/>
</svg>
