<svg width="25" height="25" viewBox="0 0 25 25" fill="none" xmlns="http://www.w3.org/2000/svg">
<path d="M14.1417 17.9906L8.81878 15.0875C8.30783 15.5947 7.65817 15.9392 6.95168 16.0777C6.2452 16.2162 5.51353 16.1425 4.84891 15.8657C4.18429 15.589 3.61648 15.1217 3.21706 14.5227C2.81764 13.9237 2.60449 13.2199 2.60449 12.5C2.60449 11.7801 2.81764 11.0763 3.21706 10.4773C3.61648 9.87832 4.18429 9.41101 4.84891 9.13427C5.51353 8.85754 6.2452 8.78377 6.95168 8.92227C7.65817 9.06076 8.30783 9.40532 8.81878 9.9125L14.1417 7.00938C13.9591 6.15285 14.091 5.25923 14.5131 4.49193C14.9353 3.72464 15.6195 3.13493 16.4408 2.83066C17.262 2.52639 18.1653 2.52789 18.9855 2.83488C19.8056 3.14188 20.4879 3.73385 20.9075 4.50254C21.3271 5.27124 21.456 6.16529 21.2706 7.0212C21.0852 7.87712 20.5979 8.6377 19.8978 9.16386C19.1978 9.69002 18.3317 9.94659 17.458 9.88667C16.5843 9.82674 15.7613 9.45432 15.1396 8.8375L9.81669 11.7406C9.92287 12.2413 9.92287 12.7587 9.81669 13.2594L15.1396 16.1625C15.7613 15.5457 16.5843 15.1733 17.458 15.1133C18.3317 15.0534 19.1978 15.31 19.8978 15.8361C20.5979 16.3623 21.0852 17.1229 21.2706 17.9788C21.456 18.8347 21.3271 19.7288 20.9075 20.4975C20.4879 21.2662 19.8056 21.8581 18.9855 22.1651C18.1653 22.4721 17.262 22.4736 16.4408 22.1693C15.6195 21.8651 14.9353 21.2754 14.5131 20.5081C14.091 19.7408 13.9591 18.8472 14.1417 17.9906V17.9906Z" fill="#1074EB"/>
</svg>
