<svg width="37" height="41" viewBox="0 0 37 41" fill="none" xmlns="http://www.w3.org/2000/svg">
<rect y="0.0869598" width="37" height="40.2174" rx="3" fill="#1074EB"/>
<path d="M10.8333 30.6123C10.8333 28.4022 11.641 26.2826 13.0788 24.7198C14.5165 23.157 16.4666 22.279 18.4999 22.279C20.5332 22.279 22.4833 23.157 23.9211 24.7198C25.3589 26.2826 26.1666 28.4022 26.1666 30.6123H24.2499C24.2499 28.9547 23.6441 27.365 22.5658 26.1929C21.4874 25.0208 20.0249 24.3623 18.4999 24.3623C16.9749 24.3623 15.5124 25.0208 14.4341 26.1929C13.3557 27.365 12.7499 28.9547 12.7499 30.6123H10.8333ZM18.4999 21.2373C15.323 21.2373 12.7499 18.4404 12.7499 14.9873C12.7499 11.5342 15.323 8.73732 18.4999 8.73732C21.6768 8.73732 24.2499 11.5342 24.2499 14.9873C24.2499 18.4404 21.6768 21.2373 18.4999 21.2373ZM18.4999 19.154C20.6178 19.154 22.3333 17.2894 22.3333 14.9873C22.3333 12.6852 20.6178 10.8207 18.4999 10.8207C16.382 10.8207 14.6666 12.6852 14.6666 14.9873C14.6666 17.2894 16.382 19.154 18.4999 19.154Z" fill="white"/>
</svg>
